PathFileType	4	(X/Y/Z)	OpenSim_Sub10_CSBaseline_Magnet.trc
DataRate	CameraRate	NumFrames	NumMarkers	Units	OrigDataRate	OrigDataStartFrame	OrigNumFrames
100	100	16	8	m	100	2278	9111
Frame#	Time	torso_imu_offset_imu	pelvis_imu_offset_imu	tibia_r_imu_offset_imu	femur_r_imu_offset_imu	tibia_l_imu_offset_imu	femur_l_imu_offset_imu	toes_r_imu_offset_imu	toes_l_imu_offset_imu
				X1	Y1	Z1	X2	Y2	Z2	X3	Y3	Z3	X4	Y4	Z4	X5	Y5	Z5	X6	Y6	Z6	X7	Y7	Z7	X8		Y8	Z8	

2278	22.77000000	-0.94522583	-0.06582035	0.08938891	-0.67755645	0.14573001	-0.64524866	-0.21673191	-0.74364301	-0.42436187	-0.83181617	-0.20715625	-0.09095285	-0.63210455	0.41664168	0.31760884	-0.66656412	0.03752072	0.29157124	-0.64174995	-0.54092105	0.14241315	-0.70307000	-0.19602499	-0.37893126
2279	22.78000000	-0.94099161	-0.07024756	0.09336694	-0.67956217	0.14513360	-0.64275462	-0.23577444	-0.73754511	-0.41385876	-0.83794215	-0.19927214	-0.08936191	-0.62481142	0.42504999	0.32824095	-0.66458961	0.04824256	0.29472912	-0.64775609	-0.52800237	0.10448015	-0.70085608	-0.19812590	-0.37894566
2280	22.79000000	-0.94098148	-0.07202567	0.08459411	-0.67924929	0.14792171	-0.64081383	-0.25752219	-0.73496038	-0.41436938	-0.84236330	-0.18624917	-0.08980168	-0.62783915	0.41974023	0.32304614	-0.66299991	0.05754307	0.29115693	-0.65010839	-0.51570295	0.06768296	-0.70067311	-0.19785559	-0.37871991
2281	22.80000000	-0.93914126	-0.07217608	0.09027189	-0.67750532	0.15640971	-0.64112994	-0.28738600	-0.72806170	-0.40442823	-0.84471290	-0.17180915	-0.08786740	-0.62979505	0.41581782	0.32402092	-0.66089645	0.07219632	0.30469976	-0.65431540	-0.50148572	0.03805797	-0.69910739	-0.19551992	-0.37669552
2282	22.81000000	-0.94368033	-0.07399090	0.09632112	-0.67741304	0.16029747	-0.64149302	-0.31363151	-0.73508537	-0.38910287	-0.84714278	-0.16214521	-0.08619343	-0.62888168	0.41628990	0.32631723	-0.65416381	0.07621613	0.30854098	-0.65243905	-0.49101687	0.00018123	-0.70595788	-0.19355694	-0.37959746
2283	22.82000000	-0.94308574	-0.07429024	0.09368637	-0.67355963	0.16436044	-0.64410753	-0.34026361	-0.71854014	-0.38343343	-0.84939983	-0.15602056	-0.08911896	-0.62247192	0.41803399	0.32856015	-0.65045072	0.08551980	0.31564572	-0.65465582	-0.47868132	-0.03075754	-0.70547340	-0.19640215	-0.38095164
2284	22.83000000	-0.94089127	-0.07853337	0.09157920	-0.67579126	0.16653053	-0.64633229	-0.37547209	-0.72119362	-0.37088019	-0.85162443	-0.14469463	-0.09084991	-0.62285446	0.41633949	0.33292855	-0.64826872	0.09381167	0.31937503	-0.65328117	-0.46811767	-0.06434718	-0.70522047	-0.20279302	-0.37984990
2285	22.84000000	-0.94355624	-0.07859122	0.08946088	-0.67084219	0.17099070	-0.64622406	-0.40097065	-0.71007342	-0.35470274	-0.85234850	-0.13116547	-0.08495179	-0.62325669	0.42305851	0.33227869	-0.64155146	0.09824236	0.31934437	-0.65938356	-0.45147841	-0.09586018	-0.70575677	-0.20197382	-0.38976632
2286	22.85000000	-0.94455941	-0.08283049	0.08717959	-0.66522340	0.17477762	-0.64653548	-0.43752649	-0.70204590	-0.34892992	-0.85644229	-0.13216002	-0.08989502	-0.62806035	0.42226143	0.33228633	-0.63280328	0.10763445	0.32089252	-0.65314121	-0.43717794	-0.12724679	-0.70659240	-0.19783314	-0.37588923
2287	22.86000000	-0.93876573	-0.08510249	0.08329065	-0.66750558	0.17520937	-0.64635817	-0.47348503	-0.69144845	-0.31818743	-0.85606129	-0.13120214	-0.08676298	-0.62885482	0.42062457	0.33060480	-0.62809835	0.11807974	0.31999214	-0.65403316	-0.42480175	-0.16128779	-0.69681179	-0.19788337	-0.37964204
2288	22.87000000	-0.94283743	-0.08896892	0.08853804	-0.66544102	0.18327302	-0.64434201	-0.50874147	-0.67592197	-0.31158961	-0.85424682	-0.12302175	-0.08323683	-0.62108705	0.42514068	0.33726114	-0.63118875	0.12507326	0.33507555	-0.65371973	-0.41261896	-0.19637329	-0.70828054	-0.19570374	-0.38353759
2289	22.88000000	-0.93825215	-0.08627891	0.09235636	-0.66791209	0.18118872	-0.64456219	-0.53476410	-0.65291966	-0.30579524	-0.85223194	-0.12137651	-0.08769581	-0.62737334	0.42735857	0.33865812	-0.61664930	0.14010461	0.32996355	-0.64743792	-0.39965593	-0.22796214	-0.70554810	-0.19570707	-0.38410259
2290	22.89000000	-0.94114097	-0.08494763	0.09221950	-0.66960546	0.18744771	-0.64687367	-0.56885941	-0.63431592	-0.30707032	-0.85252083	-0.11947253	-0.08263715	-0.61855940	0.42874645	0.33646779	-0.61943143	0.14410089	0.33963198	-0.63925211	-0.38561097	-0.26384499	-0.71036221	-0.19335417	-0.39039561
2291	22.90000000	-0.94513758	-0.08916749	0.09150476	-0.66558326	0.18241401	-0.64458446	-0.59641590	-0.61039359	-0.31547574	-0.85241904	-0.12156041	-0.08123381	-0.62271463	0.42249824	0.33937163	-0.61026758	0.15329844	0.34104530	-0.63154487	-0.37475455	-0.29924377	-0.70988695	-0.19118071	-0.38545693
2292	22.91000000	-0.94422103	-0.08855685	0.08363057	-0.66701275	0.18164324	-0.64959640	-0.62482283	-0.57899647	-0.32729957	-0.85466851	-0.11926081	-0.08522773	-0.61399272	0.42754691	0.33842783	-0.60671839	0.16204251	0.34389696	-0.62772698	-0.35536623	-0.33498942	-0.70822890	-0.18904153	-0.38560830
2293	22.92000000	-0.93849764	-0.08689389	0.09302795	-0.65880157	0.18940624	-0.65419038	-0.65241231	-0.54997546	-0.32750545	-0.85425511	-0.12222973	-0.08101572	-0.61910490	0.42903976	0.33706430	-0.60489135	0.17027448	0.35301491	-0.61904884	-0.33736133	-0.36574459	-0.71268253	-0.18658679	-0.38364889
